# xmcd
#
# Track frame offsets:
#	150
#	18649
#	35697
#	56260
#	74925
#	91559
#	113734
#	135295
#	158402
#	178191
#	194966
#	217216
#	238690
#	259905
#	277444
#
# Disc length: 3964 seconds
#
# Revision: 1
# Processed by: cddbd v1.5.2PL0 Copyright (c) Steve Scherf et al.
# Submitted via: dBpowerAMP V4.0
#
DISCID=e90f7a0f
DTITLE=Donato and Estéfano - Lo Mejor De Donato and Estéfano
DYEAR=1900
DGENRE=Ballad
TTITLE0=Sin Tí
TTITLE1=Mar Adentro
TTITLE2=Toma Tu Tiempo Y Sueña
TTITLE3=Y Bailo
TTITLE4=Te Estoy Amando
TTITLE5=Naturaleza
TTITLE6=Estoy Enamorado (Con Julio Iglesias)
TTITLE7=Con Su Blanca Palidez (A Whiter Shade Of Pale)
TTITLE8=Mi Dios Y Mi Cruz
TTITLE9=Entre La Línea Del Bien Y La Línea Del Mal
TTITLE10=De La Tierra Al Cielo
TTITLE11=Quien Te Quiera Como Yo
TTITLE12=De Hombre A Mujer
TTITLE13=Vuelve
TTITLE14=Cafeína
EXTD=
EXTT0=
EXTT1=
EXTT2=
EXTT3=
EXTT4=
EXTT5=
EXTT6=
EXTT7=
EXTT8=
EXTT9=
EXTT10=
EXTT11=
EXTT12=
EXTT13=
EXTT14=
PLAYORDER=
